<svg width="32" height="23" viewBox="0 0 32 23" fill="none" xmlns="http://www.w3.org/2000/svg">
<path opacity="0.7" d="M0 8.6593L0.00457185 14.6277H13.5464C13.5464 14.6277 16.533 11.4932 13.514 8.6593H0Z" fill="#92AB34"/>
<path opacity="0.9" d="M8.81718 11.6284L2.08457 5.31375C2.08457 5.31375 0.0837914 3.38269 2.11847 1.3263C2.11847 1.3263 3.78553 -0.555236 6.12687 1.4002L13.5582 8.66805C13.5582 8.66805 16.5189 11.3869 13.5582 14.6338L7.29069 21.0811C7.29069 21.0811 4.54591 24.1165 2.03923 21.8658C2.03923 21.8658 -0.262495 19.6414 3.06933 16.9721" fill="#98B041"/>
<path d="M24.3887 11.6284L31.1198 5.31375C31.1198 5.31375 33.1217 3.38269 31.0874 1.3263C31.0874 1.3263 29.4203 -0.555236 27.079 1.4002L19.6466 8.66805C19.6466 8.66805 16.6854 11.3869 19.6466 14.6338L25.914 21.0811C25.914 21.0811 28.6588 24.1165 31.1666 21.8658C31.1666 21.8658 33.4676 19.6414 30.1365 16.9721" fill="#84837C"/>
</svg>
