<svg width="300" height="67" viewBox="0 0 300 67" fill="none" xmlns="http://www.w3.org/2000/svg">
<path opacity="0.4" d="M74.9196 39.2073C74.9196 39.2073 85.0426 34.8523 84.3676 23.2343C84.3676 23.2343 85.7896 12.4553 74.8466 8.41528H16.6806C16.6806 8.41528 4.16564 12.6903 1.10764 26.7473C1.10764 26.7473 -1.65436 40.0483 1.54464 50.6553C1.54464 50.6553 5.74364 63.5733 16.6876 66.6763H80.6646C80.6646 66.6763 89.0656 58.9373 80.7226 49.8373H20.9726C20.9726 49.8373 13.2026 36.6333 20.8536 23.7173L66.6876 23.7133C66.6876 23.7133 64.6436 34.8043 26.5876 39.2053L74.9196 39.2073Z" fill="#666664"/>
<path opacity="0.6" d="M138.955 15.2363C138.955 15.2363 147.857 8.05127 138.849 0.000271665H100.116C100.116 0.000271665 79.0467 -0.298729 79.1897 18.9423V29.8983H70.0067C70.0067 29.8983 61.3827 37.1523 69.9457 45.4943H79.1747V62.9293C79.1747 62.9293 86.6147 72.0553 95.2337 62.8443V21.9993C95.2337 21.9993 96.0637 14.9053 106.495 15.3223L138.955 15.2363Z" fill="#6C6E6C"/>
<path opacity="0.7" d="M104.418 29.8993L104.43 45.5663H139.977C139.977 45.5663 147.817 37.3383 139.892 29.8993H104.418Z" fill="#DF9830"/>
<path opacity="0.9" d="M127.563 37.6933L109.89 21.1173C109.89 21.1173 104.638 16.0483 109.979 10.6503C109.979 10.6503 114.355 5.71127 120.501 10.8443L140.008 29.9223C140.008 29.9223 147.78 37.0593 140.008 45.5823L123.556 62.5063C123.556 62.5063 116.351 70.4743 109.771 64.5663C109.771 64.5663 103.729 58.7273 112.475 51.7203" fill="#DF9C3C"/>
<path d="M168.438 37.6933L186.107 21.1173C186.107 21.1173 191.362 16.0483 186.022 10.6503C186.022 10.6503 181.646 5.71127 175.5 10.8443L155.99 29.9223C155.99 29.9223 148.217 37.0593 155.99 45.5823L172.442 62.5063C172.442 62.5063 179.647 70.4743 186.23 64.5663C186.23 64.5663 192.27 58.7273 183.526 51.7203" fill="#84837C"/>
<path d="M230.827 21.8533H232.893V48.5683H230.827V46.7153H230.757C229.937 48.3193 228.405 49.0673 226.518 49.0673C221.211 49.0673 220.854 42.6203 220.854 38.6653C220.854 34.7113 221.318 28.4063 226.588 28.4063C228.157 28.4063 229.724 29.1913 230.757 30.5093H230.827V21.8533ZM222.92 39.0573C222.92 41.8353 223.098 47.2493 226.98 47.2493C231.184 47.2493 230.827 40.5883 230.827 37.8823C230.827 35.2103 230.65 30.2233 226.874 30.2233C222.955 30.2243 222.92 36.3853 222.92 39.0573Z" fill="#777776"/>
<path d="M247.631 38.6303H238.405C238.405 41.1603 238.05 47.2503 242.11 47.2503C245.03 47.2503 245.386 44.5083 245.565 42.1573H247.559C247.559 45.7553 246.099 49.0683 242.074 49.0683C236.588 49.0683 236.34 42.8703 236.34 38.8093C236.34 34.8563 236.589 28.4073 242.004 28.4073C246.563 28.4073 247.631 32.8963 247.631 36.6363V38.6303ZM245.565 36.8143C245.565 34.3213 245.316 30.2243 241.967 30.2243C238.761 30.2243 238.405 34.4983 238.405 36.8143H245.565Z" fill="#777776"/>
<path d="M255.567 28.4063C258.951 28.4063 260.909 30.5443 260.909 33.9283H258.879C258.808 31.8623 257.668 30.2233 255.495 30.2233C253.536 30.2233 252.575 31.4343 252.575 33.3573C252.575 34.9243 253.608 35.8153 254.961 36.3493C258.452 37.9533 261.408 39.4483 261.408 43.6523C261.408 47.1423 259.235 49.0663 255.815 49.0663C251.968 49.0663 250.081 46.9653 250.081 43.2233H252.182C252.36 45.6463 253.429 47.2483 255.958 47.2483C258.131 47.2483 259.341 45.6093 259.341 43.5453C259.341 38.3433 250.793 39.3763 250.508 34.0693C250.188 30.5093 251.969 28.4063 255.567 28.4063Z" fill="#777776"/>
<path d="M265.569 25.2373V21.8523H267.956V25.2373H265.569ZM265.711 48.5683V28.9053H267.777V48.5683H265.711Z" fill="#777776"/>
<path d="M282.234 28.9053H284.3V48.1403C284.3 52.4143 282.84 55.2993 278.21 55.2993C275.395 55.2993 272.901 53.9463 272.759 50.8473H274.861C274.967 52.6283 276.606 53.4123 278.245 53.4823C282.519 53.4823 282.127 49.9203 282.234 47.1783H282.092C281.024 48.5673 279.527 49.0663 277.96 49.0663C272.618 49.0663 272.333 43.0463 272.333 38.9493C272.333 35.2093 272.475 28.4053 277.819 28.4053C279.813 28.4053 281.095 29.1183 282.165 30.6853H282.235L282.234 28.9053ZM274.398 38.9503C274.398 41.7293 274.468 47.2493 278.423 47.2493C282.198 47.2143 282.234 41.8353 282.234 39.2353C282.234 36.0653 282.626 30.2233 278.138 30.2233C274.468 30.2243 274.398 36.6013 274.398 38.9503Z" fill="#777776"/>
<path d="M290.881 48.5683H288.815V28.9053H290.881V30.8293H290.953C291.951 29.3693 293.481 28.4063 295.405 28.4063C297.934 28.4063 300 30.1163 300 32.9663V48.5683H297.934V34.2843C297.934 32.0413 297.757 30.2233 295.05 30.2233C292.984 30.2233 290.882 31.8623 290.882 34.0703L290.881 48.5683Z" fill="#777776"/>
<path d="M205.389 0.102295V66.6303" stroke="#777776" stroke-width="0.332"/>
</svg>
