<svg width="300" height="67" viewBox="0 0 300 67" fill="none" xmlns="http://www.w3.org/2000/svg">
<path opacity="0.4" d="M74.9196 39.207C74.9196 39.207 85.0426 34.852 84.3676 23.234C84.3676 23.234 85.7896 12.455 74.8466 8.41504H16.6806C16.6806 8.41504 4.16564 12.69 1.10764 26.747C1.10764 26.747 -1.65436 40.048 1.54464 50.655C1.54464 50.655 5.74364 63.573 16.6876 66.676H80.6646C80.6646 66.676 89.0656 58.937 80.7226 49.837H20.9726C20.9726 49.837 13.2026 36.633 20.8536 23.717L66.6876 23.713C66.6876 23.713 64.6436 34.804 26.5876 39.205L74.9196 39.207Z" fill="#EEEEEE"/>
<path opacity="0.6" d="M138.955 15.2363C138.955 15.2363 147.857 8.05127 138.849 0.000271665H100.116C100.116 0.000271665 79.0467 -0.298729 79.1897 18.9423V29.8983H70.0067C70.0067 29.8983 61.3827 37.1523 69.9457 45.4943H79.1747V62.9293C79.1747 62.9293 86.6147 72.0553 95.2337 62.8443V21.9993C95.2337 21.9993 96.0637 14.9053 106.495 15.3223L138.955 15.2363Z" fill="#EEEEEE"/>
<path opacity="0.7" d="M104.418 29.8994L104.43 45.5664H139.977C139.977 45.5664 147.817 37.3384 139.892 29.8994H104.418Z" fill="#105FA3"/>
<path opacity="0.9" d="M127.563 37.6935L109.89 21.1175C109.89 21.1175 104.638 16.0485 109.979 10.6505C109.979 10.6505 114.355 5.71146 120.501 10.8445L140.008 29.9225C140.008 29.9225 147.78 37.0595 140.008 45.5825L123.556 62.5065C123.556 62.5065 116.351 70.4745 109.771 64.5665C109.771 64.5665 103.729 58.7275 112.475 51.7205" fill="#0A6EAD"/>
<path d="M168.438 37.6935L186.107 21.1175C186.107 21.1175 191.362 16.0485 186.022 10.6505C186.022 10.6505 181.646 5.71146 175.5 10.8445L155.99 29.9225C155.99 29.9225 148.217 37.0595 155.99 45.5825L172.442 62.5065C172.442 62.5065 179.647 70.4745 186.23 64.5665C186.23 64.5665 192.27 58.7275 183.526 51.7205" fill="#EEEEEE"/>
<path d="M230.827 21.853H232.893V48.568H230.827V46.715H230.757C229.937 48.319 228.405 49.067 226.518 49.067C221.211 49.067 220.854 42.62 220.854 38.665C220.854 34.711 221.318 28.406 226.588 28.406C228.157 28.406 229.724 29.191 230.757 30.509H230.827V21.853ZM222.92 39.057C222.92 41.835 223.098 47.249 226.98 47.249C231.184 47.249 230.827 40.588 230.827 37.882C230.827 35.21 230.65 30.223 226.874 30.223C222.955 30.224 222.92 36.385 222.92 39.057Z" fill="#EEEEEE"/>
<path d="M247.631 38.6302H238.405C238.405 41.1602 238.05 47.2502 242.11 47.2502C245.03 47.2502 245.386 44.5082 245.565 42.1572H247.559C247.559 45.7552 246.099 49.0682 242.074 49.0682C236.588 49.0682 236.34 42.8702 236.34 38.8092C236.34 34.8562 236.589 28.4072 242.004 28.4072C246.563 28.4072 247.631 32.8962 247.631 36.6362V38.6302ZM245.565 36.8142C245.565 34.3212 245.316 30.2242 241.967 30.2242C238.761 30.2242 238.405 34.4982 238.405 36.8142H245.565Z" fill="#EEEEEE"/>
<path d="M255.567 28.4062C258.951 28.4062 260.909 30.5443 260.909 33.9283H258.879C258.808 31.8623 257.668 30.2232 255.495 30.2232C253.536 30.2232 252.575 31.4342 252.575 33.3572C252.575 34.9242 253.608 35.8152 254.961 36.3492C258.452 37.9532 261.408 39.4483 261.408 43.6523C261.408 47.1423 259.235 49.0663 255.815 49.0663C251.968 49.0663 250.081 46.9652 250.081 43.2232H252.182C252.36 45.6462 253.429 47.2483 255.958 47.2483C258.131 47.2483 259.341 45.6092 259.341 43.5452C259.341 38.3432 250.793 39.3763 250.508 34.0693C250.188 30.5093 251.969 28.4062 255.567 28.4062Z" fill="#EEEEEE"/>
<path d="M265.569 25.2371V21.8521H267.956V25.2371H265.569ZM265.711 48.5681V28.9051H267.777V48.5681H265.711Z" fill="#EEEEEE"/>
<path d="M282.234 28.9053H284.3V48.1403C284.3 52.4143 282.84 55.2993 278.21 55.2993C275.395 55.2993 272.901 53.9463 272.759 50.8473H274.861C274.967 52.6283 276.606 53.4123 278.245 53.4823C282.519 53.4823 282.127 49.9203 282.234 47.1783H282.092C281.024 48.5673 279.527 49.0663 277.96 49.0663C272.618 49.0663 272.333 43.0463 272.333 38.9493C272.333 35.2093 272.475 28.4053 277.819 28.4053C279.813 28.4053 281.095 29.1183 282.165 30.6853H282.235L282.234 28.9053ZM274.398 38.9503C274.398 41.7293 274.468 47.2493 278.423 47.2493C282.198 47.2143 282.234 41.8353 282.234 39.2353C282.234 36.0653 282.626 30.2233 278.138 30.2233C274.468 30.2243 274.398 36.6013 274.398 38.9503Z" fill="#EEEEEE"/>
<path d="M290.881 48.5683H288.815V28.9053H290.881V30.8293H290.953C291.951 29.3693 293.481 28.4062 295.405 28.4062C297.934 28.4062 300 30.1162 300 32.9662V48.5683H297.934V34.2843C297.934 32.0413 297.757 30.2232 295.05 30.2232C292.984 30.2232 290.882 31.8622 290.882 34.0702L290.881 48.5683Z" fill="#EEEEEE"/>
<path d="M205.389 0.102051V66.6301" stroke="#EEEEEE" stroke-width="0.332"/>
</svg>
