<svg width="300" height="67" viewBox="0 0 300 67" fill="none" xmlns="http://www.w3.org/2000/svg">
<path opacity="0.4" d="M74.9196 39.207C74.9196 39.207 85.0426 34.852 84.3676 23.234C84.3676 23.234 85.7896 12.455 74.8466 8.41504H16.6806C16.6806 8.41504 4.16564 12.69 1.10764 26.747C1.10764 26.747 -1.65436 40.048 1.54464 50.655C1.54464 50.655 5.74364 63.573 16.6876 66.676H80.6646C80.6646 66.676 89.0656 58.937 80.7226 49.837H20.9726C20.9726 49.837 13.2026 36.633 20.8536 23.717L66.6876 23.713C66.6876 23.713 64.6436 34.804 26.5876 39.205L74.9196 39.207Z" fill="#EEEEEE"/>
<path opacity="0.6" d="M138.955 15.2363C138.955 15.2363 147.857 8.05127 138.849 0.000271665H100.116C100.116 0.000271665 79.0467 -0.298729 79.1897 18.9423V29.8983H70.0067C70.0067 29.8983 61.3827 37.1523 69.9457 45.4943H79.1747V62.9293C79.1747 62.9293 86.6147 72.0553 95.2337 62.8443V21.9993C95.2337 21.9993 96.0637 14.9053 106.495 15.3223L138.955 15.2363Z" fill="#EEEEEE"/>
<path opacity="0.7" d="M104.418 29.8994L104.43 45.5664H139.977C139.977 45.5664 147.817 37.3384 139.892 29.8994H104.418Z" fill="#DF9830"/>
<path opacity="0.9" d="M127.563 37.6935L109.89 21.1175C109.89 21.1175 104.638 16.0485 109.979 10.6505C109.979 10.6505 114.355 5.71146 120.501 10.8445L140.008 29.9225C140.008 29.9225 147.78 37.0595 140.008 45.5825L123.556 62.5065C123.556 62.5065 116.351 70.4745 109.771 64.5665C109.771 64.5665 103.729 58.7275 112.475 51.7205" fill="#DF9C3C"/>
<path d="M168.438 37.6935L186.107 21.1175C186.107 21.1175 191.362 16.0485 186.022 10.6505C186.022 10.6505 181.646 5.71146 175.5 10.8445L155.99 29.9225C155.99 29.9225 148.217 37.0595 155.99 45.5825L172.442 62.5065C172.442 62.5065 179.647 70.4745 186.23 64.5665C186.23 64.5665 192.27 58.7275 183.526 51.7205" fill="#EEEEEE"/>
<path d="M230.827 21.8535H232.893V48.5685H230.827V46.7155H230.757C229.937 48.3195 228.405 49.0675 226.518 49.0675C221.211 49.0675 220.854 42.6205 220.854 38.6655C220.854 34.7115 221.318 28.4065 226.588 28.4065C228.157 28.4065 229.724 29.1915 230.757 30.5095H230.827V21.8535ZM222.92 39.0575C222.92 41.8355 223.098 47.2495 226.98 47.2495C231.184 47.2495 230.827 40.5885 230.827 37.8825C230.827 35.2105 230.65 30.2235 226.874 30.2235C222.955 30.2245 222.92 36.3855 222.92 39.0575Z" fill="#EEEEEE"/>
<path d="M247.631 38.6307H238.405C238.405 41.1607 238.05 47.2507 242.11 47.2507C245.03 47.2507 245.386 44.5087 245.565 42.1577H247.559C247.559 45.7557 246.099 49.0687 242.074 49.0687C236.588 49.0687 236.34 42.8707 236.34 38.8097C236.34 34.8567 236.589 28.4077 242.004 28.4077C246.563 28.4077 247.631 32.8967 247.631 36.6367V38.6307ZM245.565 36.8147C245.565 34.3217 245.316 30.2247 241.967 30.2247C238.761 30.2247 238.405 34.4987 238.405 36.8147H245.565Z" fill="#EEEEEE"/>
<path d="M255.567 28.4067C258.951 28.4067 260.909 30.5447 260.909 33.9287H258.879C258.808 31.8627 257.668 30.2237 255.495 30.2237C253.536 30.2237 252.575 31.4347 252.575 33.3577C252.575 34.9247 253.608 35.8157 254.961 36.3497C258.452 37.9537 261.408 39.4487 261.408 43.6527C261.408 47.1427 259.235 49.0667 255.815 49.0667C251.968 49.0667 250.081 46.9657 250.081 43.2237H252.182C252.36 45.6467 253.429 47.2487 255.958 47.2487C258.131 47.2487 259.341 45.6097 259.341 43.5457C259.341 38.3437 250.793 39.3767 250.508 34.0697C250.188 30.5097 251.969 28.4067 255.567 28.4067Z" fill="#EEEEEE"/>
<path d="M265.569 25.2375V21.8525H267.956V25.2375H265.569ZM265.711 48.5685V28.9055H267.777V48.5685H265.711Z" fill="#EEEEEE"/>
<path d="M282.234 28.9058H284.3V48.1408C284.3 52.4148 282.84 55.2998 278.21 55.2998C275.395 55.2998 272.901 53.9468 272.759 50.8478H274.861C274.967 52.6288 276.606 53.4128 278.245 53.4828C282.519 53.4828 282.127 49.9208 282.234 47.1788H282.092C281.024 48.5678 279.527 49.0668 277.96 49.0668C272.618 49.0668 272.333 43.0468 272.333 38.9498C272.333 35.2098 272.475 28.4058 277.819 28.4058C279.813 28.4058 281.095 29.1188 282.165 30.6858H282.235L282.234 28.9058ZM274.398 38.9508C274.398 41.7298 274.468 47.2498 278.423 47.2498C282.198 47.2148 282.234 41.8358 282.234 39.2358C282.234 36.0658 282.626 30.2238 278.138 30.2238C274.468 30.2248 274.398 36.6018 274.398 38.9508Z" fill="#EEEEEE"/>
<path d="M290.881 48.5687H288.815V28.9057H290.881V30.8297H290.953C291.951 29.3697 293.481 28.4067 295.405 28.4067C297.934 28.4067 300 30.1167 300 32.9667V48.5687H297.934V34.2847C297.934 32.0417 297.757 30.2237 295.05 30.2237C292.984 30.2237 290.882 31.8627 290.882 34.0707L290.881 48.5687Z" fill="#EEEEEE"/>
<path d="M205.389 0.102539V66.6305" stroke="#EEEEEE" stroke-width="0.332"/>
</svg>
